<svg version="1.1" xmlns="http://www.w3.org/2000/svg" x="0px" y="0px" viewBox="0 0 1000 1000" enable-background="new 0 0 1000 1000" xml:space="preserve">
<g><path d="M977.6,491.7l0.1-0.1L806.2,320.2V186.1c0-25.4-20.6-45.9-45.9-45.9c-25.4,0-45.9,20.6-45.9,45.9v42.2L533.6,47.6l0,0c-7.3-7.8-17.3-13.1-28.6-14.3c0,0-0.1,0-0.1,0c-0.7-0.1-1.4-0.1-2.1-0.2c-0.1,0-0.3,0-0.4,0c-0.8,0-1.6-0.1-2.4-0.1c0,0,0,0,0,0c-13,0-24.8,5.4-33.1,14.1L24.1,489.9C15.4,498.2,10,510,10,523c0,25.4,20.6,45.9,45.9,45.9c12.6,0,24-5.1,32.3-13.2l0,0L500,143.9v0l1.2,1.1l0,0l411.5,411.5l0.1-0.1c8.2,7.6,19.1,12.4,31.2,12.4c25.4,0,45.9-20.6,45.9-45.9C990,510.9,985.2,499.9,977.6,491.7z"/><path d="M101.9,599.5v137.8v61.2v122.5c0,25.4,20.6,45.9,45.9,45.9h428.8V599.5h183.7V967h91.9c25.4,0,45.9-20.6,45.9-45.9V798.6v-61.2V599.5L500,201.4L101.9,599.5z M423.4,783.3H239.7V599.5h183.8L423.4,783.3L423.4,783.3z"/></g>
</svg>